<svg width="100" height="100" viewBox="0 0 100 100" fill="none" xmlns="http://www.w3.org/2000/svg">
<g clip-path="url(#clip0_55_168)">
<path d="M0 40C0 17.9086 17.9086 0 40 0H84C92.8366 0 100 7.16344 100 16V60C100 82.0914 82.0914 100 60 100H16C7.16345 100 0 92.8366 0 84V40Z" fill="#45197D"/>
<path d="M135.485 90.3571C135.485 117.596 111.004 139.929 80.4772 139.929C49.9508 139.929 25.4692 117.596 25.4692 90.3571C25.4692 63.1187 49.9508 40.7857 80.4772 40.7857C111.004 40.7857 135.485 63.1187 135.485 90.3571Z" stroke="#9038FF" stroke-width="3"/>
<ellipse cx="25.5852" cy="9.53674e-06" rx="21.3387" ry="19.2857" fill="#6E34B8"/>
<path d="M58.7942 36.2057V64.2857H51.9542V47.4457L45.6742 64.2857H40.1542L33.8342 47.4057V64.2857H26.9942V36.2057H35.0742L42.9542 55.6457L50.7542 36.2057H58.7942Z" fill="white"/>
<path d="M69.3129 49.8857C70.9396 50.2324 72.2463 51.0457 73.2329 52.3257C74.2196 53.5791 74.7129 55.0191 74.7129 56.6457C74.7129 58.9924 73.8863 60.8591 72.2329 62.2457C70.6063 63.6057 68.3263 64.2857 65.3929 64.2857H52.3129V36.2057H64.9529C67.8063 36.2057 70.0329 36.8591 71.6329 38.1657C73.2596 39.4724 74.0729 41.2457 74.0729 43.4857C74.0729 45.1391 73.6329 46.5124 72.7529 47.6057C71.8996 48.6991 70.7529 49.4591 69.3129 49.8857ZM59.1529 47.5657H63.6329C64.7529 47.5657 65.6063 47.3257 66.1929 46.8457C66.8063 46.3391 67.1129 45.6057 67.1129 44.6457C67.1129 43.6857 66.8063 42.9524 66.1929 42.4457C65.6063 41.9391 64.7529 41.6857 63.6329 41.6857H59.1529V47.5657ZM64.1929 58.7657C65.3396 58.7657 66.2196 58.5124 66.8329 58.0057C67.4729 57.4724 67.7929 56.7124 67.7929 55.7257C67.7929 54.7391 67.4596 53.9657 66.7929 53.4057C66.1529 52.8457 65.2596 52.5657 64.1129 52.5657H59.1529V58.7657H64.1929Z" fill="white"/>
</g>
<defs>
<clipPath id="clip0_55_168">
<path d="M0 40C0 17.9086 17.9086 0 40 0H84C92.8366 0 100 7.16344 100 16V60C100 82.0914 82.0914 100 60 100H16C7.16345 100 0 92.8366 0 84V40Z" fill="white"/>
</clipPath>
</defs>
</svg>
